<mxfile host="app.diagrams.net" agent="Mozilla/5.0 (Windows NT 10.0; Win64; x64) AppleWebKit/537.36 (KHTML, like Gecko) Chrome/126.0.0.0 Safari/537.36 OPR/112.0.0.0" version="24.7.14">
  <diagram id="C5RBs43oDa-KdzZeNtuy" name="Page-1">
    <mxGraphModel dx="1463" dy="723" grid="0" gridSize="10" guides="1" tooltips="1" connect="1" arrows="1" fold="1" page="1" pageScale="1" pageWidth="1169" pageHeight="827" background="none" math="0" shadow="0">
      <root>
        <mxCell id="WIyWlLk6GJQsqaUBKTNV-0" />
        <mxCell id="WIyWlLk6GJQsqaUBKTNV-1" parent="WIyWlLk6GJQsqaUBKTNV-0" />
        <mxCell id="zkfFHV4jXpPFQw0GAbJ--0" value="Mario" style="swimlane;fontStyle=2;align=center;verticalAlign=top;childLayout=stackLayout;horizontal=1;startSize=26;horizontalStack=0;resizeParent=1;resizeLast=0;collapsible=1;marginBottom=0;rounded=0;shadow=0;strokeWidth=1;" parent="WIyWlLk6GJQsqaUBKTNV-1" vertex="1">
          <mxGeometry x="190" y="163" width="160" height="150" as="geometry">
            <mxRectangle x="190" y="60" width="160" height="26" as="alternateBounds" />
          </mxGeometry>
        </mxCell>
        <mxCell id="zkfFHV4jXpPFQw0GAbJ--1" value="- estado: MarioState" style="text;align=left;verticalAlign=top;spacingLeft=4;spacingRight=4;overflow=hidden;rotatable=0;points=[[0,0.5],[1,0.5]];portConstraint=eastwest;" parent="zkfFHV4jXpPFQw0GAbJ--0" vertex="1">
          <mxGeometry y="26" width="160" height="26" as="geometry" />
        </mxCell>
        <mxCell id="zkfFHV4jXpPFQw0GAbJ--4" value="" style="line;html=1;strokeWidth=1;align=left;verticalAlign=middle;spacingTop=-1;spacingLeft=3;spacingRight=3;rotatable=0;labelPosition=right;points=[];portConstraint=eastwest;" parent="zkfFHV4jXpPFQw0GAbJ--0" vertex="1">
          <mxGeometry y="52" width="160" height="8" as="geometry" />
        </mxCell>
        <mxCell id="zkfFHV4jXpPFQw0GAbJ--5" value="&lt;&lt;create&gt;&gt; Mario()&#xa;+ pegarCogumelo(): void&#xa;+ pegarFlor(): void&#xa;+ pegarPena(): void&#xa;+ levarDano(): void" style="text;align=left;verticalAlign=top;spacingLeft=4;spacingRight=4;overflow=hidden;rotatable=0;points=[[0,0.5],[1,0.5]];portConstraint=eastwest;" parent="zkfFHV4jXpPFQw0GAbJ--0" vertex="1">
          <mxGeometry y="60" width="160" height="70" as="geometry" />
        </mxCell>
        <mxCell id="zkfFHV4jXpPFQw0GAbJ--17" value="&lt;&lt;interface&gt;&gt;&#xa;MarioState" style="swimlane;fontStyle=0;align=center;verticalAlign=top;childLayout=stackLayout;horizontal=1;startSize=40;horizontalStack=0;resizeParent=1;resizeLast=0;collapsible=1;marginBottom=0;rounded=0;shadow=0;strokeWidth=1;" parent="WIyWlLk6GJQsqaUBKTNV-1" vertex="1">
          <mxGeometry x="508" y="153" width="182" height="190" as="geometry">
            <mxRectangle x="550" y="140" width="160" height="26" as="alternateBounds" />
          </mxGeometry>
        </mxCell>
        <mxCell id="zkfFHV4jXpPFQw0GAbJ--18" value="." style="text;align=left;verticalAlign=top;spacingLeft=4;spacingRight=4;overflow=hidden;rotatable=0;points=[[0,0.5],[1,0.5]];portConstraint=eastwest;" parent="zkfFHV4jXpPFQw0GAbJ--17" vertex="1">
          <mxGeometry y="40" width="182" height="26" as="geometry" />
        </mxCell>
        <mxCell id="zkfFHV4jXpPFQw0GAbJ--23" value="" style="line;html=1;strokeWidth=1;align=left;verticalAlign=middle;spacingTop=-1;spacingLeft=3;spacingRight=3;rotatable=0;labelPosition=right;points=[];portConstraint=eastwest;" parent="zkfFHV4jXpPFQw0GAbJ--17" vertex="1">
          <mxGeometry y="66" width="182" height="8" as="geometry" />
        </mxCell>
        <mxCell id="zkfFHV4jXpPFQw0GAbJ--24" value="+ pegarCogumelo(): MarioState " style="text;align=left;verticalAlign=top;spacingLeft=4;spacingRight=4;overflow=hidden;rotatable=0;points=[[0,0.5],[1,0.5]];portConstraint=eastwest;" parent="zkfFHV4jXpPFQw0GAbJ--17" vertex="1">
          <mxGeometry y="74" width="182" height="26" as="geometry" />
        </mxCell>
        <mxCell id="zkfFHV4jXpPFQw0GAbJ--25" value="+ pegarFlor(): MarioState" style="text;align=left;verticalAlign=top;spacingLeft=4;spacingRight=4;overflow=hidden;rotatable=0;points=[[0,0.5],[1,0.5]];portConstraint=eastwest;" parent="zkfFHV4jXpPFQw0GAbJ--17" vertex="1">
          <mxGeometry y="100" width="182" height="26" as="geometry" />
        </mxCell>
        <mxCell id="eaokc08s_nMqHP_T_dxY-2" value="+ pegarPena(): MarioState" style="text;align=left;verticalAlign=top;spacingLeft=4;spacingRight=4;overflow=hidden;rotatable=0;points=[[0,0.5],[1,0.5]];portConstraint=eastwest;" vertex="1" parent="zkfFHV4jXpPFQw0GAbJ--17">
          <mxGeometry y="126" width="182" height="26" as="geometry" />
        </mxCell>
        <mxCell id="eaokc08s_nMqHP_T_dxY-3" value="+ levarDano(): MarioState" style="text;align=left;verticalAlign=top;spacingLeft=4;spacingRight=4;overflow=hidden;rotatable=0;points=[[0,0.5],[1,0.5]];portConstraint=eastwest;" vertex="1" parent="zkfFHV4jXpPFQw0GAbJ--17">
          <mxGeometry y="152" width="182" height="26" as="geometry" />
        </mxCell>
        <mxCell id="eaokc08s_nMqHP_T_dxY-49" style="edgeStyle=orthogonalEdgeStyle;rounded=0;orthogonalLoop=1;jettySize=auto;html=1;dashed=1;dashPattern=12 12;endArrow=none;endFill=0;" edge="1" parent="WIyWlLk6GJQsqaUBKTNV-1" source="eaokc08s_nMqHP_T_dxY-8">
          <mxGeometry relative="1" as="geometry">
            <mxPoint x="158" y="420.28571428571433" as="targetPoint" />
          </mxGeometry>
        </mxCell>
        <mxCell id="eaokc08s_nMqHP_T_dxY-8" value="MarioCapa" style="swimlane;fontStyle=0;align=center;verticalAlign=top;childLayout=stackLayout;horizontal=1;startSize=26;horizontalStack=0;resizeParent=1;resizeLast=0;collapsible=1;marginBottom=0;rounded=0;shadow=0;strokeWidth=1;" vertex="1" parent="WIyWlLk6GJQsqaUBKTNV-1">
          <mxGeometry x="67" y="466" width="182" height="183" as="geometry">
            <mxRectangle x="550" y="140" width="160" height="26" as="alternateBounds" />
          </mxGeometry>
        </mxCell>
        <mxCell id="eaokc08s_nMqHP_T_dxY-9" value="." style="text;align=left;verticalAlign=top;spacingLeft=4;spacingRight=4;overflow=hidden;rotatable=0;points=[[0,0.5],[1,0.5]];portConstraint=eastwest;" vertex="1" parent="eaokc08s_nMqHP_T_dxY-8">
          <mxGeometry y="26" width="182" height="26" as="geometry" />
        </mxCell>
        <mxCell id="eaokc08s_nMqHP_T_dxY-10" value="" style="line;html=1;strokeWidth=1;align=left;verticalAlign=middle;spacingTop=-1;spacingLeft=3;spacingRight=3;rotatable=0;labelPosition=right;points=[];portConstraint=eastwest;" vertex="1" parent="eaokc08s_nMqHP_T_dxY-8">
          <mxGeometry y="52" width="182" height="8" as="geometry" />
        </mxCell>
        <mxCell id="eaokc08s_nMqHP_T_dxY-11" value="+ pegarCogumelo(): MarioState " style="text;align=left;verticalAlign=top;spacingLeft=4;spacingRight=4;overflow=hidden;rotatable=0;points=[[0,0.5],[1,0.5]];portConstraint=eastwest;" vertex="1" parent="eaokc08s_nMqHP_T_dxY-8">
          <mxGeometry y="60" width="182" height="26" as="geometry" />
        </mxCell>
        <mxCell id="eaokc08s_nMqHP_T_dxY-12" value="+ pegarFlor(): MarioState" style="text;align=left;verticalAlign=top;spacingLeft=4;spacingRight=4;overflow=hidden;rotatable=0;points=[[0,0.5],[1,0.5]];portConstraint=eastwest;" vertex="1" parent="eaokc08s_nMqHP_T_dxY-8">
          <mxGeometry y="86" width="182" height="26" as="geometry" />
        </mxCell>
        <mxCell id="eaokc08s_nMqHP_T_dxY-13" value="+ pegarPena(): MarioState" style="text;align=left;verticalAlign=top;spacingLeft=4;spacingRight=4;overflow=hidden;rotatable=0;points=[[0,0.5],[1,0.5]];portConstraint=eastwest;" vertex="1" parent="eaokc08s_nMqHP_T_dxY-8">
          <mxGeometry y="112" width="182" height="26" as="geometry" />
        </mxCell>
        <mxCell id="eaokc08s_nMqHP_T_dxY-14" value="+ levarDano(): MarioState" style="text;align=left;verticalAlign=top;spacingLeft=4;spacingRight=4;overflow=hidden;rotatable=0;points=[[0,0.5],[1,0.5]];portConstraint=eastwest;" vertex="1" parent="eaokc08s_nMqHP_T_dxY-8">
          <mxGeometry y="138" width="182" height="26" as="geometry" />
        </mxCell>
        <mxCell id="eaokc08s_nMqHP_T_dxY-15" value="" style="endArrow=open;html=1;endSize=12;startArrow=diamondThin;startSize=14;startFill=0;edgeStyle=orthogonalEdgeStyle;align=left;verticalAlign=bottom;rounded=0;" edge="1" parent="WIyWlLk6GJQsqaUBKTNV-1">
          <mxGeometry x="-1" y="3" relative="1" as="geometry">
            <mxPoint x="350" y="247.8" as="sourcePoint" />
            <mxPoint x="506" y="247.8" as="targetPoint" />
          </mxGeometry>
        </mxCell>
        <mxCell id="eaokc08s_nMqHP_T_dxY-50" style="edgeStyle=orthogonalEdgeStyle;rounded=0;orthogonalLoop=1;jettySize=auto;html=1;endArrow=none;endFill=0;dashed=1;dashPattern=12 12;" edge="1" parent="WIyWlLk6GJQsqaUBKTNV-1" source="eaokc08s_nMqHP_T_dxY-16">
          <mxGeometry relative="1" as="geometry">
            <mxPoint x="378" y="419.1428571428571" as="targetPoint" />
          </mxGeometry>
        </mxCell>
        <mxCell id="eaokc08s_nMqHP_T_dxY-16" value="MarioGrande" style="swimlane;fontStyle=0;align=center;verticalAlign=top;childLayout=stackLayout;horizontal=1;startSize=26;horizontalStack=0;resizeParent=1;resizeLast=0;collapsible=1;marginBottom=0;rounded=0;shadow=0;strokeWidth=1;" vertex="1" parent="WIyWlLk6GJQsqaUBKTNV-1">
          <mxGeometry x="287" y="466" width="182" height="183" as="geometry">
            <mxRectangle x="550" y="140" width="160" height="26" as="alternateBounds" />
          </mxGeometry>
        </mxCell>
        <mxCell id="eaokc08s_nMqHP_T_dxY-17" value="." style="text;align=left;verticalAlign=top;spacingLeft=4;spacingRight=4;overflow=hidden;rotatable=0;points=[[0,0.5],[1,0.5]];portConstraint=eastwest;" vertex="1" parent="eaokc08s_nMqHP_T_dxY-16">
          <mxGeometry y="26" width="182" height="26" as="geometry" />
        </mxCell>
        <mxCell id="eaokc08s_nMqHP_T_dxY-18" value="" style="line;html=1;strokeWidth=1;align=left;verticalAlign=middle;spacingTop=-1;spacingLeft=3;spacingRight=3;rotatable=0;labelPosition=right;points=[];portConstraint=eastwest;" vertex="1" parent="eaokc08s_nMqHP_T_dxY-16">
          <mxGeometry y="52" width="182" height="8" as="geometry" />
        </mxCell>
        <mxCell id="eaokc08s_nMqHP_T_dxY-19" value="+ pegarCogumelo(): MarioState " style="text;align=left;verticalAlign=top;spacingLeft=4;spacingRight=4;overflow=hidden;rotatable=0;points=[[0,0.5],[1,0.5]];portConstraint=eastwest;" vertex="1" parent="eaokc08s_nMqHP_T_dxY-16">
          <mxGeometry y="60" width="182" height="26" as="geometry" />
        </mxCell>
        <mxCell id="eaokc08s_nMqHP_T_dxY-20" value="+ pegarFlor(): MarioState" style="text;align=left;verticalAlign=top;spacingLeft=4;spacingRight=4;overflow=hidden;rotatable=0;points=[[0,0.5],[1,0.5]];portConstraint=eastwest;" vertex="1" parent="eaokc08s_nMqHP_T_dxY-16">
          <mxGeometry y="86" width="182" height="26" as="geometry" />
        </mxCell>
        <mxCell id="eaokc08s_nMqHP_T_dxY-21" value="+ pegarPena(): MarioState" style="text;align=left;verticalAlign=top;spacingLeft=4;spacingRight=4;overflow=hidden;rotatable=0;points=[[0,0.5],[1,0.5]];portConstraint=eastwest;" vertex="1" parent="eaokc08s_nMqHP_T_dxY-16">
          <mxGeometry y="112" width="182" height="26" as="geometry" />
        </mxCell>
        <mxCell id="eaokc08s_nMqHP_T_dxY-22" value="+ levarDano(): MarioState" style="text;align=left;verticalAlign=top;spacingLeft=4;spacingRight=4;overflow=hidden;rotatable=0;points=[[0,0.5],[1,0.5]];portConstraint=eastwest;" vertex="1" parent="eaokc08s_nMqHP_T_dxY-16">
          <mxGeometry y="138" width="182" height="26" as="geometry" />
        </mxCell>
        <mxCell id="eaokc08s_nMqHP_T_dxY-44" style="edgeStyle=orthogonalEdgeStyle;rounded=0;orthogonalLoop=1;jettySize=auto;html=1;dashed=1;endArrow=block;endFill=0;dashPattern=12 12;strokeColor=default;" edge="1" parent="WIyWlLk6GJQsqaUBKTNV-1" source="eaokc08s_nMqHP_T_dxY-23">
          <mxGeometry relative="1" as="geometry">
            <mxPoint x="594" y="346.20000000000005" as="targetPoint" />
          </mxGeometry>
        </mxCell>
        <mxCell id="eaokc08s_nMqHP_T_dxY-23" value="MarioFogo" style="swimlane;fontStyle=0;align=center;verticalAlign=top;childLayout=stackLayout;horizontal=1;startSize=26;horizontalStack=0;resizeParent=1;resizeLast=0;collapsible=1;marginBottom=0;rounded=0;shadow=0;strokeWidth=1;" vertex="1" parent="WIyWlLk6GJQsqaUBKTNV-1">
          <mxGeometry x="503" y="466" width="182" height="183" as="geometry">
            <mxRectangle x="550" y="140" width="160" height="26" as="alternateBounds" />
          </mxGeometry>
        </mxCell>
        <mxCell id="eaokc08s_nMqHP_T_dxY-24" value="." style="text;align=left;verticalAlign=top;spacingLeft=4;spacingRight=4;overflow=hidden;rotatable=0;points=[[0,0.5],[1,0.5]];portConstraint=eastwest;" vertex="1" parent="eaokc08s_nMqHP_T_dxY-23">
          <mxGeometry y="26" width="182" height="26" as="geometry" />
        </mxCell>
        <mxCell id="eaokc08s_nMqHP_T_dxY-25" value="" style="line;html=1;strokeWidth=1;align=left;verticalAlign=middle;spacingTop=-1;spacingLeft=3;spacingRight=3;rotatable=0;labelPosition=right;points=[];portConstraint=eastwest;" vertex="1" parent="eaokc08s_nMqHP_T_dxY-23">
          <mxGeometry y="52" width="182" height="8" as="geometry" />
        </mxCell>
        <mxCell id="eaokc08s_nMqHP_T_dxY-26" value="+ pegarCogumelo(): MarioState " style="text;align=left;verticalAlign=top;spacingLeft=4;spacingRight=4;overflow=hidden;rotatable=0;points=[[0,0.5],[1,0.5]];portConstraint=eastwest;" vertex="1" parent="eaokc08s_nMqHP_T_dxY-23">
          <mxGeometry y="60" width="182" height="26" as="geometry" />
        </mxCell>
        <mxCell id="eaokc08s_nMqHP_T_dxY-27" value="+ pegarFlor(): MarioState" style="text;align=left;verticalAlign=top;spacingLeft=4;spacingRight=4;overflow=hidden;rotatable=0;points=[[0,0.5],[1,0.5]];portConstraint=eastwest;" vertex="1" parent="eaokc08s_nMqHP_T_dxY-23">
          <mxGeometry y="86" width="182" height="26" as="geometry" />
        </mxCell>
        <mxCell id="eaokc08s_nMqHP_T_dxY-28" value="+ pegarPena(): MarioState" style="text;align=left;verticalAlign=top;spacingLeft=4;spacingRight=4;overflow=hidden;rotatable=0;points=[[0,0.5],[1,0.5]];portConstraint=eastwest;" vertex="1" parent="eaokc08s_nMqHP_T_dxY-23">
          <mxGeometry y="112" width="182" height="26" as="geometry" />
        </mxCell>
        <mxCell id="eaokc08s_nMqHP_T_dxY-29" value="+ levarDano(): MarioState" style="text;align=left;verticalAlign=top;spacingLeft=4;spacingRight=4;overflow=hidden;rotatable=0;points=[[0,0.5],[1,0.5]];portConstraint=eastwest;" vertex="1" parent="eaokc08s_nMqHP_T_dxY-23">
          <mxGeometry y="138" width="182" height="26" as="geometry" />
        </mxCell>
        <mxCell id="eaokc08s_nMqHP_T_dxY-51" style="edgeStyle=orthogonalEdgeStyle;rounded=0;orthogonalLoop=1;jettySize=auto;html=1;dashed=1;dashPattern=12 12;endArrow=none;endFill=0;" edge="1" parent="WIyWlLk6GJQsqaUBKTNV-1" source="eaokc08s_nMqHP_T_dxY-30">
          <mxGeometry relative="1" as="geometry">
            <mxPoint x="813" y="418" as="targetPoint" />
          </mxGeometry>
        </mxCell>
        <mxCell id="eaokc08s_nMqHP_T_dxY-30" value="MarioPequeno" style="swimlane;fontStyle=0;align=center;verticalAlign=top;childLayout=stackLayout;horizontal=1;startSize=26;horizontalStack=0;resizeParent=1;resizeLast=0;collapsible=1;marginBottom=0;rounded=0;shadow=0;strokeWidth=1;" vertex="1" parent="WIyWlLk6GJQsqaUBKTNV-1">
          <mxGeometry x="722" y="466" width="182" height="183" as="geometry">
            <mxRectangle x="550" y="140" width="160" height="26" as="alternateBounds" />
          </mxGeometry>
        </mxCell>
        <mxCell id="eaokc08s_nMqHP_T_dxY-31" value="." style="text;align=left;verticalAlign=top;spacingLeft=4;spacingRight=4;overflow=hidden;rotatable=0;points=[[0,0.5],[1,0.5]];portConstraint=eastwest;" vertex="1" parent="eaokc08s_nMqHP_T_dxY-30">
          <mxGeometry y="26" width="182" height="26" as="geometry" />
        </mxCell>
        <mxCell id="eaokc08s_nMqHP_T_dxY-32" value="" style="line;html=1;strokeWidth=1;align=left;verticalAlign=middle;spacingTop=-1;spacingLeft=3;spacingRight=3;rotatable=0;labelPosition=right;points=[];portConstraint=eastwest;" vertex="1" parent="eaokc08s_nMqHP_T_dxY-30">
          <mxGeometry y="52" width="182" height="8" as="geometry" />
        </mxCell>
        <mxCell id="eaokc08s_nMqHP_T_dxY-33" value="+ pegarCogumelo(): MarioState " style="text;align=left;verticalAlign=top;spacingLeft=4;spacingRight=4;overflow=hidden;rotatable=0;points=[[0,0.5],[1,0.5]];portConstraint=eastwest;" vertex="1" parent="eaokc08s_nMqHP_T_dxY-30">
          <mxGeometry y="60" width="182" height="26" as="geometry" />
        </mxCell>
        <mxCell id="eaokc08s_nMqHP_T_dxY-34" value="+ pegarFlor(): MarioState" style="text;align=left;verticalAlign=top;spacingLeft=4;spacingRight=4;overflow=hidden;rotatable=0;points=[[0,0.5],[1,0.5]];portConstraint=eastwest;" vertex="1" parent="eaokc08s_nMqHP_T_dxY-30">
          <mxGeometry y="86" width="182" height="26" as="geometry" />
        </mxCell>
        <mxCell id="eaokc08s_nMqHP_T_dxY-35" value="+ pegarPena(): MarioState" style="text;align=left;verticalAlign=top;spacingLeft=4;spacingRight=4;overflow=hidden;rotatable=0;points=[[0,0.5],[1,0.5]];portConstraint=eastwest;" vertex="1" parent="eaokc08s_nMqHP_T_dxY-30">
          <mxGeometry y="112" width="182" height="26" as="geometry" />
        </mxCell>
        <mxCell id="eaokc08s_nMqHP_T_dxY-36" value="+ levarDano(): MarioState" style="text;align=left;verticalAlign=top;spacingLeft=4;spacingRight=4;overflow=hidden;rotatable=0;points=[[0,0.5],[1,0.5]];portConstraint=eastwest;" vertex="1" parent="eaokc08s_nMqHP_T_dxY-30">
          <mxGeometry y="138" width="182" height="26" as="geometry" />
        </mxCell>
        <mxCell id="eaokc08s_nMqHP_T_dxY-52" style="edgeStyle=orthogonalEdgeStyle;rounded=0;orthogonalLoop=1;jettySize=auto;html=1;dashed=1;dashPattern=12 12;endArrow=none;endFill=0;" edge="1" parent="WIyWlLk6GJQsqaUBKTNV-1" source="eaokc08s_nMqHP_T_dxY-37">
          <mxGeometry relative="1" as="geometry">
            <mxPoint x="1031" y="414.57142857142856" as="targetPoint" />
          </mxGeometry>
        </mxCell>
        <mxCell id="eaokc08s_nMqHP_T_dxY-37" value="MarioMorto" style="swimlane;fontStyle=0;align=center;verticalAlign=top;childLayout=stackLayout;horizontal=1;startSize=26;horizontalStack=0;resizeParent=1;resizeLast=0;collapsible=1;marginBottom=0;rounded=0;shadow=0;strokeWidth=1;" vertex="1" parent="WIyWlLk6GJQsqaUBKTNV-1">
          <mxGeometry x="940" y="466" width="182" height="183" as="geometry">
            <mxRectangle x="550" y="140" width="160" height="26" as="alternateBounds" />
          </mxGeometry>
        </mxCell>
        <mxCell id="eaokc08s_nMqHP_T_dxY-38" value="." style="text;align=left;verticalAlign=top;spacingLeft=4;spacingRight=4;overflow=hidden;rotatable=0;points=[[0,0.5],[1,0.5]];portConstraint=eastwest;" vertex="1" parent="eaokc08s_nMqHP_T_dxY-37">
          <mxGeometry y="26" width="182" height="26" as="geometry" />
        </mxCell>
        <mxCell id="eaokc08s_nMqHP_T_dxY-39" value="" style="line;html=1;strokeWidth=1;align=left;verticalAlign=middle;spacingTop=-1;spacingLeft=3;spacingRight=3;rotatable=0;labelPosition=right;points=[];portConstraint=eastwest;" vertex="1" parent="eaokc08s_nMqHP_T_dxY-37">
          <mxGeometry y="52" width="182" height="8" as="geometry" />
        </mxCell>
        <mxCell id="eaokc08s_nMqHP_T_dxY-40" value="+ pegarCogumelo(): MarioState " style="text;align=left;verticalAlign=top;spacingLeft=4;spacingRight=4;overflow=hidden;rotatable=0;points=[[0,0.5],[1,0.5]];portConstraint=eastwest;" vertex="1" parent="eaokc08s_nMqHP_T_dxY-37">
          <mxGeometry y="60" width="182" height="26" as="geometry" />
        </mxCell>
        <mxCell id="eaokc08s_nMqHP_T_dxY-41" value="+ pegarFlor(): MarioState" style="text;align=left;verticalAlign=top;spacingLeft=4;spacingRight=4;overflow=hidden;rotatable=0;points=[[0,0.5],[1,0.5]];portConstraint=eastwest;" vertex="1" parent="eaokc08s_nMqHP_T_dxY-37">
          <mxGeometry y="86" width="182" height="26" as="geometry" />
        </mxCell>
        <mxCell id="eaokc08s_nMqHP_T_dxY-42" value="+ pegarPena(): MarioState" style="text;align=left;verticalAlign=top;spacingLeft=4;spacingRight=4;overflow=hidden;rotatable=0;points=[[0,0.5],[1,0.5]];portConstraint=eastwest;" vertex="1" parent="eaokc08s_nMqHP_T_dxY-37">
          <mxGeometry y="112" width="182" height="26" as="geometry" />
        </mxCell>
        <mxCell id="eaokc08s_nMqHP_T_dxY-43" value="+ levarDano(): MarioState" style="text;align=left;verticalAlign=top;spacingLeft=4;spacingRight=4;overflow=hidden;rotatable=0;points=[[0,0.5],[1,0.5]];portConstraint=eastwest;" vertex="1" parent="eaokc08s_nMqHP_T_dxY-37">
          <mxGeometry y="138" width="182" height="26" as="geometry" />
        </mxCell>
        <mxCell id="eaokc08s_nMqHP_T_dxY-48" value="" style="endArrow=none;dashed=1;html=1;rounded=0;dashPattern=12 12;endFill=0;" edge="1" parent="WIyWlLk6GJQsqaUBKTNV-1">
          <mxGeometry width="50" height="50" relative="1" as="geometry">
            <mxPoint x="158" y="420" as="sourcePoint" />
            <mxPoint x="1030" y="415" as="targetPoint" />
          </mxGeometry>
        </mxCell>
      </root>
    </mxGraphModel>
  </diagram>
</mxfile>
